<?xml version="1.0" encoding="UTF-8"?>
<svg width="125px" height="22px" viewBox="0 0 125 22" version="1.1" xmlns="http://www.w3.org/2000/svg" xmlns:xlink="http://www.w3.org/1999/xlink">
    <!-- Generator: Sketch 52.3 (67297) - http://www.bohemiancoding.com/sketch -->
    <title>cannected-logo-white</title>
    <desc>Created with Sketch.</desc>
    <g id="Page-1" stroke="none" stroke-width="1" fill="none" fill-rule="evenodd">
        <g id="Cannected-Landing-Page-Web-v1-Copy" transform="translate(-95.000000, -41.000000)" fill="#FFFFFF">
            <g id="hero-group">
                <g id="menu-group" transform="translate(95.000000, 41.000000)">
                    <g id="cannected-logo-white">
                        <path d="M41.0325809,14.1875422 C41.0325809,12.1747141 40.0721698,11.1420891 37.7618598,11.1420891 C36.6717318,11.1420891 35.5037736,11.5126516 34.7768531,11.9364953 L34.7768531,21.7615578 L32.2849394,21.7615578 L32.2849394,10.7182453 C33.9463275,9.57957344 36.02281,8.91733906 37.8917453,8.91733906 C41.4220687,8.91733906 43.550438,10.4798547 43.550438,13.8695734 L43.550438,21.7615578 L41.0325809,21.7615578 L41.0325809,14.1875422 Z" id="Fill-1"></path>
                        <path d="M55.6203167,14.1875422 C55.6203167,12.1747141 54.6600741,11.1420891 52.3497642,11.1420891 C51.2596361,11.1420891 50.0915094,11.5126516 49.3645889,11.9364953 L49.3645889,21.7615578 L46.8728437,21.7615578 L46.8728437,10.7182453 C48.5340633,9.57957344 50.6107143,8.91733906 52.4794811,8.91733906 C56.0098046,8.91733906 58.1381739,10.4798547 58.1381739,13.8695734 L58.1381739,21.7615578 L55.6203167,21.7615578 L55.6203167,14.1875422 Z" id="Fill-3"></path>
                        <path d="M63.3814016,14.1080672 L70.3899933,14.1080672 C70.0523922,12.2806922 69.0660377,10.9565672 66.9893868,10.9565672 C65.0166779,10.9565672 63.7188342,12.3071609 63.3814016,14.1080672 M67.4048181,19.8284109 C68.9102089,19.8284109 70.104279,19.5106141 71.5060647,18.5836922 L72.5183625,20.4640047 C70.6753706,21.7087234 69.4034704,22.0000516 67.2749326,22.0000516 C63.0699124,22.0000516 60.733659,19.1663484 60.733659,15.4057234 C60.733659,11.7511453 63.2255728,8.83786406 66.9893868,8.83786406 C70.5197102,8.83786406 72.7518531,11.2214266 72.9595687,14.5583797 C72.9595687,14.6377859 73.0373989,15.5117703 73.0114555,16.1207234 L63.3035714,16.1207234 C63.5112871,18.4247078 64.8350741,19.8284109 67.4048181,19.8284109" id="Fill-5"></path>
                        <path d="M74.983996,15.4322094 C74.983996,11.8041 77.6576819,8.9172875 81.4993261,8.9172875 C83.8613544,8.9172875 85.2631402,9.55288125 86.7168127,11.3273187 L84.9775943,12.8104281 C83.8613544,11.5921781 82.9529987,11.1153969 81.4993261,11.1153969 C79.111186,11.1153969 77.5539084,13.0486469 77.5539084,15.2996937 C77.5539084,18.1333969 79.1371294,19.8019594 81.6290431,19.8019594 C82.9529987,19.8019594 84.0171833,19.3781156 85.4188005,18.1333969 L86.7944744,19.9078344 C85.1591981,21.5232875 83.4460916,21.9998969 81.4733827,21.9998969 C77.3721361,21.9998969 74.983996,19.1663656 74.983996,15.4322094" id="Fill-8"></path>
                        <path d="M89.2863039,17.63025 L89.2863039,5.79235937 L91.7522743,5.79235937 L91.7522743,9.1293125 L95.8794643,9.1293125 L95.8794643,11.4068281 L91.7522743,11.4068281 L91.7522743,17.4449687 C91.7522743,18.7690937 92.5309131,19.6429062 93.8806435,19.6429062 C94.6333389,19.6429062 95.5420317,19.5899688 96.7878201,19.1662969 L96.7878201,21.285 C95.6717487,21.7880781 94.5295654,21.894125 93.5950977,21.894125 C90.9475236,21.894125 89.2863039,20.1990937 89.2863039,17.63025" id="Fill-10"></path>
                        <path d="M100.811085,14.1080672 L107.819677,14.1080672 C107.482075,12.2806922 106.495721,10.9565672 104.41907,10.9565672 C102.446361,10.9565672 101.148518,12.3071609 100.811085,14.1080672 M104.834501,19.8284109 C106.339892,19.8284109 107.533962,19.5106141 108.935748,18.5836922 L109.948046,20.4640047 C108.105054,21.7087234 106.833154,22.0000516 104.704616,22.0000516 C100.499427,22.0000516 98.1633423,19.1663484 98.1633423,15.4057234 C98.1633423,11.7511453 100.655256,8.83786406 104.41907,8.83786406 C107.949394,8.83786406 110.181705,11.2214266 110.389252,14.5583797 C110.389252,14.6377859 110.467082,15.5117703 110.441307,16.1207234 L100.733255,16.1207234 C100.94097,18.4247078 102.264757,19.8284109 104.834501,19.8284109" id="Fill-12"></path>
                        <path d="M118.954987,10.8771953 C116.333187,10.8771953 114.93157,12.7575078 114.93157,15.2467734 C114.93157,17.7893203 116.151584,19.7223984 118.876988,19.7223984 C120.486489,19.7223984 121.550674,19.3251953 122.459367,18.6631328 L122.459367,14.0286953 C122.459367,12.2277891 121.109468,10.8771953 118.954987,10.8771953 Z M122.537197,21.4968359 C122.537197,20.9672891 122.043935,21.2055078 121.784333,21.3115547 C120.849865,21.6556484 119.474023,21.9205078 118.695384,21.9205078 C114.568194,21.9205078 112.413713,19.0338672 112.413713,15.2997109 C112.413713,11.5921953 114.957513,8.65261719 118.876988,8.65261719 C120.486489,8.65261719 121.602729,9.07628906 122.537197,9.73852344 L122.537197,3.06461719 L124.899225,3.06461719 L124.899225,21.7616953 L122.537197,21.7616953 L122.537197,21.4968359 Z" id="Fill-15"></path>
                        <path d="M10.4566712,11.6067359 C9.91489218,11.6067359 9.47553908,11.1586578 9.47553908,10.6057359 C9.47553908,10.0529859 9.91489218,9.60473594 10.4566712,9.60473594 C10.9984501,9.60473594 11.4378032,10.0529859 11.4378032,10.6057359 C11.4378032,11.1586578 10.9984501,11.6067359 10.4566712,11.6067359 M10.4566712,3.69498594 C6.71559973,3.69498594 3.68308625,6.78907969 3.68308625,10.6057359 C3.68308625,14.3520953 6.60525606,17.3999547 10.2506402,17.5113297 C10.9128706,17.4809078 13.4027628,17.1350953 14.7174528,13.7147828 C15.0894205,12.7474703 15.4986186,11.0672203 16.9335916,10.2274391 L17.2091981,10.0865016 C16.9489218,6.51253281 14.0262466,3.69498594 10.4566712,3.69498594" id="Fill-17"></path>
                        <path d="M26.4752358,9.33664531 C26.4752358,9.33664531 26.3246294,9.24864531 26.3205863,9.24606719 C25.9620957,9.02692656 25.3699461,8.79420781 25.3699461,8.79420781 L25.3709569,8.79678594 C24.7350067,8.53381719 23.9567049,8.37637969 23.1110175,8.37637969 C22.1676213,8.37637969 21.2131065,8.57180156 20.5261119,8.89200469 C20.1157345,9.06216094 19.7243935,9.26961406 19.3603437,9.51745781 C18.3372642,10.2140672 17.5171833,11.1934109 16.9986523,12.3434266 L15.7461253,15.0499422 C15.1143868,16.6946141 13.8936995,18.1792703 12.4518194,19.0496453 C10.9941038,19.7840672 9.88881402,19.6591141 9.88881402,19.6591141 C6.45687332,19.2974891 3.61741914,16.9025828 2.55239218,13.6713328 C2.25960243,12.7830828 2.09855121,11.8331297 2.09855121,10.8441609 C2.09855121,5.94658281 5.99006065,1.97627031 10.7904313,1.97627031 C14.4693396,1.97627031 17.6120283,4.30930156 18.8808962,7.60345781 C19.4184636,7.18133281 20.0451482,6.87333281 20.7294474,6.71606719 C19.0894542,2.76895781 15.2570755,5.15625e-05 10.7904313,5.15625e-05 C4.831031,5.15625e-05 0,4.92891094 0,11.0089891 C0,15.6052703 2.76179245,19.5418953 6.68396226,21.1905203 C7.67553908,21.7100984 8.92099057,22.0000516 10.1019205,22.0000516 C10.1671159,22.0000516 10.1019205,22.0000516 10.166779,21.9981609 C12.3509097,21.9386922 14.2981806,20.8785672 15.6219677,19.2361297 C15.6219677,19.2361297 15.8498989,19.0047859 16.0636792,18.6710047 C16.773248,17.5622391 18.5431267,13.9059422 18.5431267,13.9059422 C19.3234501,11.9953797 20.934973,10.4835672 23.0689016,10.4835672 C25.5574461,10.4835672 27.5928235,12.4453484 27.7806604,14.9351297 C27.800876,15.1113016 27.8138477,15.2897078 27.8138477,15.4713797 C27.8138477,16.2374266 27.6260108,16.9584422 27.2995283,17.5964422 C27.266341,17.6538484 27.2351752,17.7124578 27.2056941,17.7720984 C26.4036388,19.1868016 24.8881402,20.1431141 23.1470687,20.1431141 C21.4556941,20.1432859 19.978942,19.2397391 19.1602089,17.8915516 C18.7441038,18.4171453 18.2813342,18.9021766 17.7786388,19.3416609 C18.9989892,20.9519578 20.9097035,21.9897391 23.0589623,21.9895672 C24.6474057,21.9895672 26.1051213,21.4222078 27.2508423,20.4767234 C27.7301213,21.3716766 28.6549865,21.9826922 29.7215296,21.9995359 C29.7243935,21.9997078 29.7272574,22.0000516 29.7302898,22.0000516 L29.7302898,16.1573328 L29.7302898,15.1986141 C29.7299528,15.1932859 29.7302898,15.1879578 29.7302898,15.1822859 C29.7301213,12.6974891 28.4241914,10.5249891 26.4752358,9.33664531 Z" id="Fill-19"></path>
                        <path d="M22.2343666,15.2642531 C22.2702493,14.7127062 22.7375674,14.2952219 23.2781671,14.3318312 C23.8189353,14.3684406 24.2281334,14.8452219 24.1922507,15.3969406 C24.1563679,15.9484875 23.6888814,16.3659719 23.1482817,16.3293625 C22.6076819,16.2927531 22.1983154,15.8159719 22.2343666,15.2642531 Z M20.7463275,12.7486906 L20.7432951,12.7409563 C19.4815027,13.8969875 19.0040768,16.4295656 19.0040768,16.4295656 C19.3305593,16.9343625 19.7574461,17.3460031 20.1619272,17.6629406 C20.6752358,18.0943469 21.3425202,18.5288469 22.1371631,18.7663781 C22.4043464,18.8543781 22.6856806,18.9124719 22.9789757,18.9324094 C24.9286051,19.0645812 26.614252,17.5589563 26.7436321,15.569675 C26.8730121,13.5803938 25.3974394,11.8607844 23.447473,11.7287844 C22.4048518,11.6581438 21.4403976,12.0589563 20.7463275,12.7486906 Z" id="Fill-22"></path>
                    </g>
                </g>
            </g>
        </g>
    </g>
</svg>