<?xml version="1.0" encoding="UTF-8"?>
<svg width="75px" height="75px" viewBox="0 0 75 75" version="1.1" xmlns="http://www.w3.org/2000/svg" xmlns:xlink="http://www.w3.org/1999/xlink">
    <!-- Generator: Sketch 51.3 (57544) - http://www.bohemiancoding.com/sketch -->
    <title>ic_assessment</title>
    <desc>Created with Sketch.</desc>
    <defs></defs>
    <g id="Page-1" stroke="none" stroke-width="1" fill="none" fill-rule="evenodd">
        <g id="ic_assessment">
            <polygon id="Bounds" fill-opacity="0.1" fill="#FFFFFF" points="0 0 75 0 75 75 0 75"></polygon>
            <path d="M56.6666667,14 L19.3333333,14 C16.4,14 14,16.4 14,19.3333333 L14,56.6666667 C14,59.6 16.4,62 19.3333333,62 L56.6666667,62 C59.6,62 62,59.6 62,56.6666667 L62,19.3333333 C62,16.4 59.6,14 56.6666667,14 L56.6666667,14 Z M30,51.3333333 L24.6666667,51.3333333 L24.6666667,32.6666667 L30,32.6666667 L30,51.3333333 L30,51.3333333 Z M40.6666667,51.3333333 L35.3333333,51.3333333 L35.3333333,24.6666667 L40.6666667,24.6666667 L40.6666667,51.3333333 L40.6666667,51.3333333 Z M51.3333333,51.3333333 L46,51.3333333 L46,40.6666667 L51.3333333,40.6666667 L51.3333333,51.3333333 L51.3333333,51.3333333 Z" id="Shape" fill="#F66830"></path>
        </g>
    </g>
</svg>