<?xml version="1.0" encoding="UTF-8"?>
<svg width="75px" height="75px" viewBox="0 0 75 75" version="1.1" xmlns="http://www.w3.org/2000/svg" xmlns:xlink="http://www.w3.org/1999/xlink">
    <!-- Generator: Sketch 51.3 (57544) - http://www.bohemiancoding.com/sketch -->
    <title>ic_style</title>
    <desc>Created with Sketch.</desc>
    <defs></defs>
    <g id="Page-1" stroke="none" stroke-width="1" fill="none" fill-rule="evenodd">
        <g id="ic_style">
            <polygon id="Bounds" fill-opacity="0.1" fill="#FFFFFF" points="0 0 75 0 75 75 0 75"></polygon>
            <path d="M14.1338435,56.6947368 L17.5343113,58.1094737 L17.5343113,35.2968421 L11.3677914,50.1010526 C10.3273497,52.6778947 11.5708044,55.6336842 14.1338435,56.6947368 L14.1338435,56.6947368 Z M63.6182624,47.3473684 L51.0314563,17.1073684 C50.244781,15.2126316 48.3922873,14.0505263 46.4382872,14 C45.7784949,14 45.0933261,14.1010526 44.4335338,14.3789474 L25.7309612,22.0842105 C23.8277143,22.8673684 22.6603895,24.6863158 22.6096363,26.6315789 C22.5842596,27.3136842 22.7111428,27.9957895 22.9902856,28.6526316 L35.5770917,58.8926316 C36.3637671,60.8126316 38.2416373,61.9747368 40.2210141,62 C40.8808063,62 41.5405986,61.8736842 42.1750142,61.6210526 L60.8522102,53.9157895 C63.440626,52.8547368 64.6840806,49.8989474 63.6182624,47.3473684 L63.6182624,47.3473684 Z M27.7103379,29.1578947 C26.3146235,29.1578947 25.1726754,28.0210526 25.1726754,26.6315789 C25.1726754,25.2421053 26.3146235,24.1052632 27.7103379,24.1052632 C29.1060523,24.1052632 30.2480004,25.2421053 30.2480004,26.6315789 C30.2480004,28.0210526 29.1060523,29.1578947 27.7103379,29.1578947 L27.7103379,29.1578947 Z M22.6350129,56.9473684 C22.6350129,59.7263158 24.9189092,62 27.7103379,62 L31.3899485,62 L22.6350129,40.9305263 L22.6350129,56.9473684 L22.6350129,56.9473684 Z" id="Shape" fill="#F66830"></path>
        </g>
    </g>
</svg>