<?xml version="1.0" encoding="UTF-8"?>
<svg width="75px" height="75px" viewBox="0 0 75 75" version="1.1" xmlns="http://www.w3.org/2000/svg" xmlns:xlink="http://www.w3.org/1999/xlink">
    <!-- Generator: Sketch 51.3 (57544) - http://www.bohemiancoding.com/sketch -->
    <title>ic_track_changes</title>
    <desc>Created with Sketch.</desc>
    <defs></defs>
    <g id="Page-1" stroke="none" stroke-width="1" fill="none" fill-rule="evenodd">
        <g id="ic_track_changes">
            <polygon id="Bounds" fill-opacity="0.1" fill="#FFFFFF" points="0 0 75 0 75 75 0 75"></polygon>
            <path d="M54.968,21.032 L51.584,24.416 C55.04,27.896 57.2,32.696 57.2,38 C57.2,48.608 48.608,57.2 38,57.2 C27.392,57.2 18.8,48.608 18.8,38 C18.8,28.208 26.12,20.144 35.6,18.968 L35.6,23.816 C28.784,24.968 23.6,30.872 23.6,38 C23.6,45.944 30.056,52.4 38,52.4 C45.944,52.4 52.4,45.944 52.4,38 C52.4,34.016 50.792,30.416 48.176,27.824 L44.792,31.208 C46.52,32.96 47.6,35.36 47.6,38 C47.6,43.304 43.304,47.6 38,47.6 C32.696,47.6 28.4,43.304 28.4,38 C28.4,33.536 31.472,29.816 35.6,28.736 L35.6,33.872 C34.16,34.712 33.2,36.224 33.2,38 C33.2,40.64 35.36,42.8 38,42.8 C40.64,42.8 42.8,40.64 42.8,38 C42.8,36.224 41.84,34.688 40.4,33.872 L40.4,14 L38,14 C24.752,14 14,24.752 14,38 C14,51.248 24.752,62 38,62 C51.248,62 62,51.248 62,38 C62,31.376 59.312,25.376 54.968,21.032 L54.968,21.032 Z" id="Shape" fill="#F66830"></path>
        </g>
    </g>
</svg>