<?xml version="1.0" encoding="UTF-8"?>
<svg width="1200px" height="1600px" viewBox="0 0 1200 1600" version="1.1" xmlns="http://www.w3.org/2000/svg" xmlns:xlink="http://www.w3.org/1999/xlink">
    <!-- Generator: Sketch 51.3 (57544) - http://www.bohemiancoding.com/sketch -->
    <title>inner-3</title>
    <desc>Created with Sketch.</desc>
    <defs>
        <polygon id="path-1" points="0.00836608954 2.82715339 1465.38472 2.82715339 1465.38472 1066.9747 0.00836608954 1066.9747"></polygon>
    </defs>
    <g id="inner-3" stroke="none" stroke-width="1" fill="none" fill-rule="evenodd">
        <rect fill="#F46830" x="0" y="0" width="1200" height="1600"></rect>
        <g id="Group-25" opacity="0.6" transform="translate(-225.000000, 557.000000)">
            <g id="Group-18">
                <mask id="mask-2" fill="white">
                    <use xlink:href="#path-1"></use>
                </mask>
                <g id="Clip-17"></g>
                <path d="M1304.95101,454.443134 C1304.95101,454.443134 1297.53308,450.185148 1297.32393,450.073463 C1279.65753,439.463399 1250.47383,428.197186 1250.47383,428.197186 L1250.5296,428.322831 C1219.17071,415.618676 1180.81219,407.996182 1139.13512,407.996182 C1092.6336,407.996182 1045.58829,417.447516 1011.71957,432.929833 C991.501524,441.166593 972.203744,451.204272 954.272425,463.182476 C903.824906,496.88339 863.416693,544.251742 837.85829,599.884775 L776.116549,730.793421 C744.980752,810.354941 684.814625,882.168321 613.744694,924.273523 C541.893929,959.789316 487.416742,953.744372 487.416742,953.744372 C318.254412,936.251727 178.303678,820.40658 125.806466,664.117545 C111.374961,621.146785 103.44112,575.188455 103.44112,527.359403 C103.44112,290.461802 295.247666,98.4196424 531.854621,98.4196424 C713.189612,98.4196424 868.08776,211.277218 930.624279,370.609667 C957.130839,350.185294 988.015653,335.289322 1021.74494,327.68079 C940.914569,136.755479 752.008267,2.81738096 531.854621,2.81738096 C238.121218,2.81738096 0.00836608954,241.236689 0.00836608954,535.330912 C0.00836608954,757.653636 136.124643,948.076364 329.451029,1027.81937 C378.322935,1052.94847 439.702145,1066.97888 497.916185,1066.97888 C501.137129,1066.97888 497.916185,1066.97888 501.109242,1066.89512 C608.766871,1064.00527 704.753805,1012.72795 769.99536,933.292078 C769.99536,933.292078 781.233807,922.095668 791.761136,905.957202 C826.745334,852.320536 913.975761,675.467521 913.975761,675.467521 C952.445829,583.048279 1031.88185,509.9226 1137.04359,509.9226 C1259.70441,509.9226 1360.02777,604.812871 1369.30018,725.237098 C1370.29017,733.767031 1370.93157,742.394688 1370.93157,751.175912 C1370.93157,875.96981 1267.95895,977.142355 1140.90594,977.156316 C1057.53786,977.170277 984.752878,933.459605 944.40044,868.249593 C923.889577,893.671865 901.07804,917.139651 876.300471,938.401661 C936.452655,1016.27395 1030.62694,1066.4763 1136.56952,1066.4763 C1318.18338,1066.46234 1465.39867,919.038294 1465.38472,737.201341 C1465.38472,617.014444 1401.02161,511.918968 1304.95101,454.443134" id="Fill-16" fill="#FFFFFF" mask="url(#mask-2)"></path>
            </g>
            <path d="M520.607065,561.501956 C493.726202,561.501956 471.952142,539.730542 471.952142,512.884271 C471.952142,486.038 493.726202,464.266586 520.607065,464.266586 C547.473899,464.266586 569.261989,486.038 569.261989,512.884271 C569.261989,539.730542 547.473899,561.501956 520.607065,561.501956 M520.607065,177.200745 C335.078603,177.200745 184.666425,327.497804 184.666425,512.884271 C184.666425,694.850116 329.592999,842.890126 510.37943,848.301437 C543.222906,846.829448 666.712132,830.034758 731.922076,663.896296 C750.357073,616.904808 770.658017,535.300556 841.830573,494.50544 L855.49548,487.664197 C842.574146,314.067659 697.633543,177.200745 520.607065,177.200745" id="Fill-19" fill="#FFFFFF"></path>
            <path d="M1394.68448,798.463223 C1376.47895,809.669593 1360.93234,825.048094 1349.31987,843.473817 L1349.19778,843.587731 L1349.22491,843.630449 C1334.9535,866.384935 1326.5833,893.582099 1326.5833,922.843968 C1326.5833,1001.74422 1386.95188,1065.73587 1461.83605,1066.94622 C1461.97171,1066.96046 1462.12093,1066.9747 1462.25659,1066.9747 L1462.25659,778.72748 L1462.25659,731.42435 L1394.68448,798.463223 Z" id="Fill-21" fill="#FFFFFF"></path>
            <path d="M1158.22152,797.918376 C1130.31963,796.079061 1109.20705,771.949 1111.06134,744.052722 C1112.90103,716.156444 1137.02134,695.033517 1164.92322,696.88743 C1192.83971,698.741343 1213.95229,722.856806 1212.098,750.753084 C1210.24371,778.663959 1186.138,799.772289 1158.22152,797.918376 M1164.81082,562.158263 C1112.56448,558.687186 1064.24441,578.366071 1029.47494,612.226788 L1029.31902,611.844261 C966.087624,668.599923 942.175638,792.921175 942.175638,792.921175 C958.53274,817.686251 979.921707,837.88934 1000.19091,853.459603 C1025.90302,874.626093 1059.34011,895.962595 1099.14145,907.622582 C1112.55031,911.94372 1126.63953,914.79142 1141.32406,915.768989 C1239.02727,922.257779 1323.47755,848.345076 1329.95519,750.701536 C1336.447,653.057996 1262.51403,568.647053 1164.81082,562.158263" id="Fill-23" fill="#FFFFFF"></path>
        </g>
    </g>
</svg>